<svg width="450" height="150" viewBox="0 0 450 150" fill="none" xmlns="http://www.w3.org/2000/svg">
<g clip-path="url(#clip0_101_2)">
<path d="M3.456 48.176C3.648 47.024 3.856 45.856 4.08 44.672C4.336 43.488 4.64 42.176 4.992 40.736C5.376 39.296 5.84 37.648 6.384 35.792C6.96 33.936 7.648 31.776 8.448 29.312C7.968 29.344 7.44 29.392 6.864 29.456C6.32 29.52 5.808 29.568 5.328 29.6C5.328 28.576 5.712 27.792 6.48 27.248C7.248 26.704 8.256 26.304 9.504 26.048C9.632 25.6 9.744 25.248 9.84 24.992C9.936 24.736 10.048 24.416 10.176 24.032C10.304 23.648 10.496 23.12 10.752 22.448C11.008 21.744 11.344 20.752 11.76 19.472C12.208 18.192 12.784 16.512 13.488 14.432C13.552 14.272 13.664 13.952 13.824 13.472C13.984 12.992 14.064 12.544 14.064 12.128C14.064 11.872 14.016 11.696 13.92 11.6C13.856 11.504 13.696 11.456 13.44 11.456C12.8 11.456 12.144 11.744 11.472 12.32C10.832 12.896 10.24 13.632 9.696 14.528C9.152 15.392 8.72 16.304 8.4 17.264C8.08 18.192 7.92 19.024 7.92 19.76C7.92 20.016 7.952 20.304 8.016 20.624C8.08 20.944 8.208 21.376 8.4 21.92C7.056 21.92 6.08 21.632 5.472 21.056C4.896 20.448 4.608 19.68 4.608 18.752C4.608 17.664 4.928 16.576 5.568 15.488C6.24 14.4 7.088 13.408 8.112 12.512C9.168 11.584 10.272 10.848 11.424 10.304C12.608 9.728 13.696 9.44 14.688 9.44C15.712 9.44 16.416 9.712 16.8 10.256C17.184 10.8 17.376 11.408 17.376 12.08C17.376 12.432 17.328 12.784 17.232 13.136C17.168 13.488 17.088 13.824 16.992 14.144L13.488 25.664C13.872 25.632 14.256 25.616 14.64 25.616C15.056 25.616 15.472 25.616 15.888 25.616C17.456 25.616 18.928 25.648 20.304 25.712C21.68 25.776 23.008 25.872 24.288 26C25.088 23.312 25.76 21.104 26.304 19.376C26.88 17.648 27.376 16.224 27.792 15.104C28.24 13.952 28.64 12.944 28.992 12.08C29.12 11.824 29.296 11.488 29.52 11.072C29.776 10.624 30.128 10.24 30.576 9.92C31.056 9.568 31.68 9.392 32.448 9.392C32.032 10.512 31.52 12 30.912 13.856C30.336 15.68 29.744 17.68 29.136 19.856C28.528 22 27.952 24.128 27.408 26.24C27.856 26.24 28.48 26.272 29.28 26.336C30.112 26.368 30.88 26.384 31.584 26.384C30.592 27.376 29.712 28 28.944 28.256C28.176 28.48 27.472 28.592 26.832 28.592C26.48 30.064 26.16 31.472 25.872 32.816C25.584 34.16 25.344 35.408 25.152 36.56C24.768 38.608 24.48 40.4 24.288 41.936C24.128 43.44 24.048 44.672 24.048 45.632C24.048 46.144 24.064 46.592 24.096 46.976C24.16 47.392 24.224 47.792 24.288 48.176C22.656 48.016 21.536 47.616 20.928 46.976C20.352 46.368 20.064 45.28 20.064 43.712C20.064 42.976 20.112 42.16 20.208 41.264C20.336 40.368 20.544 39.312 20.832 38.096C21.088 36.912 21.44 35.552 21.888 34.016C22.336 32.48 22.88 30.688 23.52 28.64C21.568 28.64 19.952 28.656 18.672 28.688C17.392 28.72 16.272 28.752 15.312 28.784C14.352 28.816 13.392 28.88 12.432 28.976C12.4 29.104 12.32 29.376 12.192 29.792C12.064 30.208 11.84 30.944 11.52 32C11.2 33.056 10.72 34.608 10.08 36.656C9.44 38.704 8.576 41.456 7.488 44.912C7.136 46.096 6.528 46.928 5.664 47.408C4.8 47.92 4.064 48.176 3.456 48.176ZM33.438 46.256C32.382 46.256 31.47 45.904 30.702 45.2C29.902 44.496 29.502 43.44 29.502 42.032C29.502 40.912 29.758 39.696 30.27 38.384C30.782 37.072 31.486 35.776 32.382 34.496C33.278 33.216 34.302 32.064 35.454 31.04C36.606 29.984 37.838 29.136 39.15 28.496C40.462 27.856 41.774 27.536 43.086 27.536C44.462 27.536 45.63 27.888 46.59 28.592C47.55 29.296 48.03 30.224 48.03 31.376C48.03 32.24 47.726 32.864 47.118 33.248C46.51 33.632 45.79 33.744 44.958 33.584C45.022 33.296 45.07 33.008 45.102 32.72C45.166 32.432 45.198 32.128 45.198 31.808C45.198 31.168 45.07 30.592 44.814 30.08C44.558 29.568 44.014 29.312 43.182 29.312C42.286 29.312 41.374 29.616 40.446 30.224C39.518 30.832 38.622 31.632 37.758 32.624C36.926 33.584 36.174 34.656 35.502 35.84C34.83 36.992 34.302 38.128 33.918 39.248C33.534 40.368 33.342 41.376 33.342 42.272C33.342 43.296 33.71 43.808 34.446 43.808C35.182 43.808 35.998 43.456 36.894 42.752C37.79 42.016 38.686 41.104 39.582 40.016C40.51 38.928 41.39 37.824 42.222 36.704C43.054 35.552 43.774 34.576 44.382 33.776C44.478 33.616 44.606 33.536 44.766 33.536C44.894 33.568 45.134 33.648 45.486 33.776C45.87 33.872 46.222 34.032 46.542 34.256C46.862 34.48 47.022 34.768 47.022 35.12C47.022 35.44 46.878 35.856 46.59 36.368C46.334 36.848 46.014 37.392 45.63 38C45.278 38.576 44.958 39.168 44.67 39.776C44.414 40.352 44.286 40.912 44.286 41.456C44.286 41.872 44.398 42.272 44.622 42.656C44.846 43.008 45.214 43.184 45.726 43.184C46.494 43.184 47.566 42.624 48.942 41.504C50.35 40.352 51.774 38.416 53.214 35.696L54.126 36.608C53.358 38.336 52.43 39.872 51.342 41.216C50.286 42.528 49.166 43.552 47.982 44.288C46.798 45.056 45.598 45.44 44.382 45.44C43.07 45.44 42.094 45.024 41.454 44.192C40.814 43.36 40.462 42.464 40.398 41.504C40.398 41.44 40.398 41.392 40.398 41.36C40.398 41.328 40.398 41.296 40.398 41.264C39.118 42.8 37.934 44.016 36.846 44.912C35.79 45.808 34.654 46.256 33.438 46.256ZM54.3821 57.44C53.5821 57.44 52.8301 57.184 52.1261 56.672C51.4541 56.192 51.1181 55.408 51.1181 54.32C51.1181 53.296 51.4221 52.368 52.0301 51.536C52.6381 50.736 53.4221 49.984 54.3821 49.28C55.3421 48.608 56.3661 47.984 57.4541 47.408C58.5741 46.864 59.6461 46.352 60.6701 45.872C61.0221 44.944 61.4061 43.776 61.8221 42.368C62.2701 40.928 62.6541 39.6 62.9741 38.384C61.9821 39.76 60.9261 40.976 59.8061 42.032C58.6861 43.088 57.4381 43.616 56.0621 43.616C55.4861 43.616 54.8781 43.504 54.2381 43.28C53.5981 43.024 53.0541 42.608 52.6061 42.032C52.1901 41.424 51.9821 40.624 51.9821 39.632C51.9821 38.8 52.1261 37.792 52.4141 36.608C52.7341 35.424 53.1181 34.272 53.5661 33.152C54.0461 32 54.5421 31.056 55.0541 30.32C55.5661 29.552 56.0141 29.168 56.3981 29.168C56.5901 29.168 56.8621 29.248 57.2141 29.408C57.5981 29.536 57.9661 29.728 58.3181 29.984C58.6701 30.208 58.8941 30.464 58.9901 30.752C58.7021 31.136 58.3821 31.696 58.0301 32.432C57.6781 33.136 57.3421 33.936 57.0221 34.832C56.7021 35.696 56.4301 36.544 56.2061 37.376C56.0141 38.208 55.9181 38.928 55.9181 39.536C55.9181 40.016 56.0141 40.432 56.2061 40.784C56.3981 41.136 56.7661 41.312 57.3101 41.312C58.0141 41.312 58.7341 41.024 59.4701 40.448C60.2381 39.872 60.9741 39.136 61.6781 38.24C62.4141 37.344 63.0701 36.432 63.6461 35.504C63.7101 35.28 63.7741 34.928 63.8381 34.448C63.9021 33.968 64.0141 33.472 64.1741 32.96C64.3341 32.416 64.6061 31.92 64.9901 31.472C65.4061 31.024 65.9821 30.8 66.7181 30.8C66.9741 30.8 67.2141 30.816 67.4381 30.848C67.6621 30.88 67.9341 30.928 68.2541 30.992C68.2541 31.472 68.0781 32.416 67.7261 33.824C67.4061 35.2 66.9741 36.8 66.4301 38.624C65.8861 40.448 65.2781 42.272 64.6061 44.096C65.9501 43.552 67.3421 42.656 68.7821 41.408C70.2541 40.128 71.4381 38.32 72.3341 35.984L73.1501 36.656C72.6701 38.256 71.9341 39.648 70.9421 40.832C69.9821 42.016 68.8941 43.024 67.6781 43.856C66.4621 44.688 65.2301 45.376 63.9821 45.92C63.1181 48 62.1741 49.92 61.1501 51.68C60.1581 53.44 59.1021 54.832 57.9821 55.856C56.8621 56.912 55.6621 57.44 54.3821 57.44ZM53.9021 55.664C54.5101 55.664 55.3581 55.024 56.4461 53.744C57.5341 52.464 58.6381 50.544 59.7581 47.984C58.7341 48.496 57.6941 49.088 56.6381 49.76C55.6141 50.464 54.7501 51.2 54.0461 51.968C53.3421 52.736 52.9901 53.52 52.9901 54.32C52.9901 54.64 53.0541 54.944 53.1821 55.232C53.3421 55.52 53.5821 55.664 53.9021 55.664ZM73.9849 46.256C72.9289 46.256 72.0169 45.904 71.2489 45.2C70.4489 44.496 70.0489 43.44 70.0489 42.032C70.0489 40.912 70.3049 39.696 70.8169 38.384C71.3289 37.072 72.0329 35.776 72.9289 34.496C73.8249 33.216 74.8489 32.064 76.0009 31.04C77.1529 29.984 78.3849 29.136 79.6969 28.496C81.0089 27.856 82.3209 27.536 83.6329 27.536C85.0089 27.536 86.1769 27.888 87.1369 28.592C88.0969 29.296 88.5769 30.224 88.5769 31.376C88.5769 32.24 88.2729 32.864 87.6649 33.248C87.0569 33.632 86.3369 33.744 85.5049 33.584C85.5689 33.296 85.6169 33.008 85.6489 32.72C85.7129 32.432 85.7449 32.128 85.7449 31.808C85.7449 31.168 85.6169 30.592 85.3609 30.08C85.1049 29.568 84.5609 29.312 83.7289 29.312C82.8329 29.312 81.9209 29.616 80.9929 30.224C80.0649 30.832 79.1689 31.632 78.3049 32.624C77.4729 33.584 76.7209 34.656 76.0489 35.84C75.3769 36.992 74.8489 38.128 74.4649 39.248C74.0809 40.368 73.8889 41.376 73.8889 42.272C73.8889 43.296 74.2569 43.808 74.9929 43.808C75.7289 43.808 76.5449 43.456 77.4409 42.752C78.3369 42.016 79.2329 41.104 80.1289 40.016C81.0569 38.928 81.9369 37.824 82.7689 36.704C83.6009 35.552 84.3209 34.576 84.9289 33.776C85.0249 33.616 85.1529 33.536 85.3129 33.536C85.4409 33.568 85.6809 33.648 86.0329 33.776C86.4169 33.872 86.7689 34.032 87.0889 34.256C87.4089 34.48 87.5689 34.768 87.5689 35.12C87.5689 35.44 87.4249 35.856 87.1369 36.368C86.8809 36.848 86.5609 37.392 86.1769 38C85.8249 38.576 85.5049 39.168 85.2169 39.776C84.9609 40.352 84.8329 40.912 84.8329 41.456C84.8329 41.872 84.9449 42.272 85.1689 42.656C85.3929 43.008 85.7609 43.184 86.2729 43.184C87.0409 43.184 88.1129 42.624 89.4889 41.504C90.8969 40.352 92.3209 38.416 93.7609 35.696L94.6729 36.608C93.9049 38.336 92.9769 39.872 91.8889 41.216C90.8329 42.528 89.7129 43.552 88.5289 44.288C87.3449 45.056 86.1449 45.44 84.9289 45.44C83.6169 45.44 82.6409 45.024 82.0009 44.192C81.3609 43.36 81.0089 42.464 80.9449 41.504C80.9449 41.44 80.9449 41.392 80.9449 41.36C80.9449 41.328 80.9449 41.296 80.9449 41.264C79.6649 42.8 78.4809 44.016 77.3929 44.912C76.3369 45.808 75.2009 46.256 73.9849 46.256ZM96.993 46.208C95.585 46.208 94.449 45.792 93.585 44.96C92.721 44.128 92.289 42.864 92.289 41.168C92.289 39.856 92.529 38.224 93.009 36.272C93.521 34.32 94.161 32.304 94.929 30.224C94.705 30.16 94.433 30.112 94.113 30.08C93.825 30.016 93.537 29.92 93.249 29.792V28.304C93.761 28.368 94.177 28.416 94.497 28.448C94.849 28.48 95.201 28.512 95.553 28.544C96.225 26.848 96.945 25.216 97.713 23.648C98.513 22.048 99.297 20.624 100.065 19.376C100.865 18.128 101.617 17.152 102.321 16.448C103.025 15.712 103.649 15.344 104.193 15.344C104.513 15.344 104.817 15.472 105.105 15.728C105.393 15.952 105.537 16.288 105.537 16.736C105.537 17.376 105.201 18.288 104.529 19.472C103.889 20.656 103.089 22.048 102.129 23.648C101.169 25.216 100.241 26.896 99.345 28.688C99.601 28.688 99.857 28.688 100.113 28.688C100.369 28.688 100.609 28.688 100.833 28.688C102.241 28.688 103.505 28.672 104.625 28.64C105.777 28.576 106.945 28.48 108.129 28.352V29.936C106.369 30.096 104.753 30.224 103.281 30.32C101.809 30.416 100.401 30.48 99.057 30.512C98.961 30.512 98.865 30.512 98.769 30.512C98.673 30.512 98.577 30.512 98.481 30.512C97.809 32.08 97.217 33.696 96.705 35.36C96.225 36.992 95.985 38.592 95.985 40.16C95.985 41.472 96.193 42.4 96.609 42.944C97.025 43.488 97.681 43.76 98.577 43.76C100.177 43.76 101.809 43.04 103.473 41.6C105.169 40.128 106.641 38.144 107.889 35.648L108.561 36.128C107.729 38.016 106.689 39.728 105.441 41.264C104.225 42.8 102.897 44 101.457 44.864C100.017 45.76 98.529 46.208 96.993 46.208ZM110.821 46.208C109.413 46.208 108.277 45.792 107.413 44.96C106.549 44.128 106.117 42.864 106.117 41.168C106.117 39.856 106.357 38.224 106.837 36.272C107.349 34.32 107.989 32.304 108.757 30.224C108.533 30.16 108.261 30.112 107.941 30.08C107.653 30.016 107.365 29.92 107.077 29.792V28.304C107.589 28.368 108.005 28.416 108.325 28.448C108.677 28.48 109.029 28.512 109.381 28.544C110.053 26.848 110.773 25.216 111.541 23.648C112.341 22.048 113.125 20.624 113.893 19.376C114.693 18.128 115.445 17.152 116.149 16.448C116.853 15.712 117.477 15.344 118.021 15.344C118.341 15.344 118.645 15.472 118.933 15.728C119.221 15.952 119.365 16.288 119.365 16.736C119.365 17.376 119.029 18.288 118.357 19.472C117.717 20.656 116.917 22.048 115.957 23.648C114.997 25.216 114.069 26.896 113.173 28.688C113.429 28.688 113.685 28.688 113.941 28.688C114.197 28.688 114.437 28.688 114.661 28.688C116.069 28.688 117.333 28.672 118.453 28.64C119.605 28.576 120.773 28.48 121.957 28.352V29.936C120.197 30.096 118.581 30.224 117.109 30.32C115.637 30.416 114.229 30.48 112.885 30.512C112.789 30.512 112.693 30.512 112.597 30.512C112.501 30.512 112.405 30.512 112.309 30.512C111.637 32.08 111.045 33.696 110.533 35.36C110.053 36.992 109.813 38.592 109.813 40.16C109.813 41.472 110.021 42.4 110.437 42.944C110.853 43.488 111.509 43.76 112.405 43.76C114.005 43.76 115.637 43.04 117.301 41.6C118.997 40.128 120.469 38.144 121.717 35.648L122.389 36.128C121.557 38.016 120.517 39.728 119.269 41.264C118.053 42.8 116.725 44 115.285 44.864C113.845 45.76 112.357 46.208 110.821 46.208ZM122.969 46.256C121.913 46.256 121.001 45.904 120.233 45.2C119.433 44.496 119.033 43.44 119.033 42.032C119.033 40.912 119.289 39.696 119.801 38.384C120.313 37.072 121.017 35.776 121.913 34.496C122.809 33.216 123.833 32.064 124.985 31.04C126.137 29.984 127.369 29.136 128.681 28.496C129.993 27.856 131.305 27.536 132.617 27.536C133.993 27.536 135.161 27.888 136.121 28.592C137.081 29.296 137.561 30.224 137.561 31.376C137.561 32.24 137.257 32.864 136.649 33.248C136.041 33.632 135.321 33.744 134.489 33.584C134.553 33.296 134.601 33.008 134.633 32.72C134.697 32.432 134.729 32.128 134.729 31.808C134.729 31.168 134.601 30.592 134.345 30.08C134.089 29.568 133.545 29.312 132.713 29.312C131.817 29.312 130.905 29.616 129.977 30.224C129.049 30.832 128.153 31.632 127.289 32.624C126.457 33.584 125.705 34.656 125.033 35.84C124.361 36.992 123.833 38.128 123.449 39.248C123.065 40.368 122.873 41.376 122.873 42.272C122.873 43.296 123.241 43.808 123.977 43.808C124.713 43.808 125.529 43.456 126.425 42.752C127.321 42.016 128.217 41.104 129.113 40.016C130.041 38.928 130.921 37.824 131.753 36.704C132.585 35.552 133.305 34.576 133.913 33.776C134.009 33.616 134.137 33.536 134.297 33.536C134.425 33.568 134.665 33.648 135.017 33.776C135.401 33.872 135.753 34.032 136.073 34.256C136.393 34.48 136.553 34.768 136.553 35.12C136.553 35.44 136.409 35.856 136.121 36.368C135.865 36.848 135.545 37.392 135.161 38C134.809 38.576 134.489 39.168 134.201 39.776C133.945 40.352 133.817 40.912 133.817 41.456C133.817 41.872 133.929 42.272 134.153 42.656C134.377 43.008 134.745 43.184 135.257 43.184C136.025 43.184 137.097 42.624 138.473 41.504C139.881 40.352 141.305 38.416 142.745 35.696L143.657 36.608C142.889 38.336 141.961 39.872 140.873 41.216C139.817 42.528 138.697 43.552 137.513 44.288C136.329 45.056 135.129 45.44 133.913 45.44C132.601 45.44 131.625 45.024 130.985 44.192C130.345 43.36 129.993 42.464 129.929 41.504C129.929 41.44 129.929 41.392 129.929 41.36C129.929 41.328 129.929 41.296 129.929 41.264C128.649 42.8 127.465 44.016 126.377 44.912C125.321 45.808 124.185 46.256 122.969 46.256ZM159.646 46.112C157.598 46.112 156.014 45.552 154.894 44.432C153.806 43.344 153.262 41.968 153.262 40.304C153.262 38.896 153.614 37.408 154.318 35.84C155.054 34.24 156.03 32.752 157.246 31.376C158.462 29.968 159.806 28.832 161.278 27.968C162.75 27.104 164.222 26.672 165.694 26.672C166.526 26.672 167.31 26.896 168.046 27.344C168.814 27.76 169.198 28.608 169.198 29.888C169.198 31.104 168.846 32.24 168.142 33.296C167.438 34.352 166.494 35.296 165.31 36.128C164.126 36.96 162.814 37.648 161.374 38.192C159.966 38.704 158.542 39.04 157.102 39.2C157.07 39.328 157.038 39.472 157.006 39.632C157.006 39.76 157.006 39.984 157.006 40.304C157.006 40.464 157.022 40.752 157.054 41.168C157.118 41.552 157.262 41.968 157.486 42.416C157.71 42.864 158.078 43.248 158.59 43.568C159.102 43.888 159.806 44.048 160.702 44.048C162.046 44.048 163.39 43.68 164.734 42.944C166.11 42.176 167.39 41.168 168.574 39.92C169.79 38.672 170.798 37.28 171.598 35.744L172.558 36.512C171.694 38.432 170.574 40.112 169.198 41.552C167.854 42.992 166.35 44.112 164.686 44.912C163.054 45.712 161.374 46.112 159.646 46.112ZM157.63 37.424C158.462 37.328 159.39 37.04 160.414 36.56C161.438 36.08 162.414 35.472 163.342 34.736C164.302 34 165.086 33.2 165.694 32.336C166.302 31.44 166.606 30.544 166.606 29.648C166.606 29.296 166.542 29.056 166.414 28.928C166.286 28.8 166.078 28.736 165.79 28.736C165.054 28.736 164.286 29.008 163.486 29.552C162.686 30.064 161.902 30.752 161.134 31.616C160.366 32.448 159.678 33.376 159.07 34.4C158.462 35.424 157.982 36.432 157.63 37.424ZM186.614 44.96C185.366 44.96 184.406 44.64 183.734 44C183.094 43.392 182.773 42.608 182.773 41.648C182.773 41.008 182.885 40.336 183.109 39.632C183.334 38.896 183.558 38.16 183.782 37.424C184.006 36.688 184.118 35.984 184.118 35.312C184.118 34.608 183.942 34.128 183.59 33.872C183.27 33.584 182.885 33.44 182.438 33.44C181.478 33.44 180.486 33.84 179.462 34.64C178.47 35.408 177.494 36.384 176.534 37.568C175.606 38.752 174.726 39.984 173.894 41.264C173.062 42.544 172.342 43.696 171.734 44.72C171.126 44.72 170.55 44.608 170.005 44.384C169.461 44.192 168.997 43.84 168.613 43.328C168.645 43.168 168.837 42.688 169.189 41.888C169.509 41.056 169.877 40.08 170.293 38.96C170.71 37.808 171.078 36.608 171.398 35.36C171.718 34.112 171.878 32.976 171.878 31.952C172.102 31.696 172.438 31.44 172.886 31.184C173.366 30.928 173.862 30.8 174.374 30.8C175.494 30.8 176.054 31.28 176.054 32.24C176.054 32.624 175.974 33.2 175.814 33.968C175.686 34.704 175.494 35.552 175.238 36.512C176.07 35.392 176.982 34.336 177.974 33.344C178.966 32.352 179.99 31.552 181.046 30.944C182.134 30.304 183.222 29.984 184.31 29.984C185.686 29.984 186.694 30.448 187.334 31.376C188.006 32.304 188.342 33.328 188.342 34.448C188.342 35.408 188.182 36.304 187.862 37.136C187.542 37.968 187.222 38.752 186.902 39.488C186.614 40.224 186.47 40.944 186.47 41.648C186.47 42.16 186.582 42.528 186.806 42.752C187.062 42.944 187.334 43.04 187.622 43.04C188.39 43.04 189.19 42.672 190.022 41.936C190.854 41.2 191.638 40.272 192.374 39.152C193.142 38 193.814 36.848 194.39 35.696L195.206 36.368C194.534 37.936 193.766 39.376 192.902 40.688C192.07 41.968 191.126 43.008 190.07 43.808C189.046 44.576 187.894 44.96 186.614 44.96ZM207.802 45.824C207.098 45.824 206.586 45.28 206.266 44.192C205.978 43.104 205.834 41.84 205.834 40.4C205.834 38.928 206.074 37.152 206.554 35.072C207.066 32.992 207.738 30.8 208.57 28.496C209.434 26.192 210.378 23.936 211.402 21.728C212.458 19.52 213.53 17.52 214.618 15.728C215.738 13.904 216.794 12.448 217.786 11.36C218.81 10.272 219.706 9.728 220.474 9.728C221.146 9.728 221.658 10.096 222.01 10.832C222.362 11.568 222.538 12.336 222.538 13.136C222.538 14 222.33 15.072 221.914 16.352C221.53 17.6 220.986 18.944 220.282 20.384C219.578 21.824 218.746 23.248 217.786 24.656C216.858 26.032 215.834 27.296 214.714 28.448C213.626 29.6 212.49 30.528 211.306 31.232C210.89 32.32 210.554 33.344 210.298 34.304C210.074 35.232 209.914 36.112 209.818 36.944C209.722 37.776 209.674 38.592 209.674 39.392C209.674 39.552 209.674 39.728 209.674 39.92C209.706 40.08 209.722 40.24 209.722 40.4C209.85 40.208 210.058 39.712 210.346 38.912C210.634 38.112 211.018 37.184 211.498 36.128C212.01 35.04 212.634 33.984 213.37 32.96C214.106 31.904 214.97 31.04 215.962 30.368C216.954 29.664 218.09 29.312 219.37 29.312C220.458 29.312 221.306 29.568 221.914 30.08C222.522 30.56 222.954 31.168 223.21 31.904C223.466 32.608 223.594 33.328 223.594 34.064C223.594 35.088 223.418 36.048 223.066 36.944C222.746 37.84 222.41 38.688 222.058 39.488C221.738 40.256 221.578 40.992 221.578 41.696C221.578 42.272 221.706 42.672 221.962 42.896C222.218 43.12 222.522 43.232 222.874 43.232C223.578 43.232 224.394 42.88 225.322 42.176C226.282 41.472 227.226 40.544 228.154 39.392C229.114 38.208 229.93 36.912 230.602 35.504L231.37 36.32C230.634 37.92 229.77 39.392 228.778 40.736C227.786 42.08 226.698 43.152 225.514 43.952C224.33 44.752 223.05 45.152 221.674 45.152C220.458 45.152 219.53 44.832 218.89 44.192C218.25 43.552 217.93 42.752 217.93 41.792C217.93 41.12 218.042 40.384 218.266 39.584C218.522 38.752 218.762 37.92 218.986 37.088C219.21 36.256 219.322 35.504 219.322 34.832C219.322 34.064 219.146 33.536 218.794 33.248C218.474 32.96 218.074 32.816 217.594 32.816C216.794 32.816 216.074 33.136 215.434 33.776C214.794 34.384 214.218 35.184 213.706 36.176C213.194 37.168 212.714 38.224 212.266 39.344C211.818 40.432 211.37 41.472 210.922 42.464C210.474 43.456 209.994 44.256 209.482 44.864C209.002 45.504 208.442 45.824 207.802 45.824ZM212.314 28.16C213.146 27.424 213.946 26.544 214.714 25.52C215.482 24.496 216.186 23.44 216.826 22.352C217.498 21.232 218.074 20.16 218.554 19.136C219.066 18.08 219.466 17.136 219.754 16.304C220.042 15.472 220.202 14.832 220.234 14.384C220.234 14.352 220.234 14.336 220.234 14.336C220.234 14.304 220.234 14.272 220.234 14.24C220.042 14.24 219.626 14.64 218.986 15.44C218.378 16.208 217.658 17.264 216.826 18.608C216.026 19.92 215.21 21.408 214.378 23.072C213.578 24.736 212.89 26.432 212.314 28.16ZM232.001 46.256C230.945 46.256 230.033 45.904 229.264 45.2C228.464 44.496 228.064 43.44 228.064 42.032C228.064 40.912 228.32 39.696 228.832 38.384C229.344 37.072 230.049 35.776 230.945 34.496C231.841 33.216 232.865 32.064 234.017 31.04C235.169 29.984 236.401 29.136 237.713 28.496C239.025 27.856 240.337 27.536 241.648 27.536C243.025 27.536 244.193 27.888 245.153 28.592C246.113 29.296 246.593 30.224 246.593 31.376C246.593 32.24 246.289 32.864 245.681 33.248C245.073 33.632 244.353 33.744 243.521 33.584C243.585 33.296 243.633 33.008 243.665 32.72C243.729 32.432 243.761 32.128 243.761 31.808C243.761 31.168 243.633 30.592 243.377 30.08C243.121 29.568 242.577 29.312 241.745 29.312C240.849 29.312 239.937 29.616 239.009 30.224C238.081 30.832 237.185 31.632 236.321 32.624C235.489 33.584 234.737 34.656 234.065 35.84C233.393 36.992 232.865 38.128 232.48 39.248C232.097 40.368 231.905 41.376 231.905 42.272C231.905 43.296 232.273 43.808 233.009 43.808C233.745 43.808 234.561 43.456 235.457 42.752C236.353 42.016 237.249 41.104 238.145 40.016C239.073 38.928 239.953 37.824 240.785 36.704C241.617 35.552 242.337 34.576 242.945 33.776C243.041 33.616 243.169 33.536 243.329 33.536C243.457 33.568 243.697 33.648 244.049 33.776C244.433 33.872 244.785 34.032 245.105 34.256C245.425 34.48 245.585 34.768 245.585 35.12C245.585 35.44 245.441 35.856 245.153 36.368C244.897 36.848 244.577 37.392 244.193 38C243.841 38.576 243.521 39.168 243.233 39.776C242.977 40.352 242.849 40.912 242.849 41.456C242.849 41.872 242.961 42.272 243.185 42.656C243.409 43.008 243.777 43.184 244.289 43.184C245.057 43.184 246.129 42.624 247.505 41.504C248.913 40.352 250.337 38.416 251.777 35.696L252.689 36.608C251.921 38.336 250.993 39.872 249.905 41.216C248.849 42.528 247.729 43.552 246.545 44.288C245.361 45.056 244.161 45.44 242.945 45.44C241.633 45.44 240.657 45.024 240.017 44.192C239.377 43.36 239.025 42.464 238.961 41.504C238.961 41.44 238.961 41.392 238.961 41.36C238.961 41.328 238.961 41.296 238.961 41.264C237.681 42.8 236.497 44.016 235.409 44.912C234.353 45.808 233.217 46.256 232.001 46.256ZM265.857 45.824C264.865 45.824 264.001 45.504 263.265 44.864C262.529 44.224 261.937 43.424 261.489 42.464C261.041 41.504 260.705 40.528 260.481 39.536C260.257 38.512 260.145 37.632 260.145 36.896C260.593 36.8 261.153 36.656 261.825 36.464C262.497 36.272 263.185 36.016 263.889 35.696C264.593 35.344 265.169 34.928 265.617 34.448C266.097 33.936 266.337 33.328 266.337 32.624C266.337 32.048 266.145 31.584 265.761 31.232C265.409 30.88 264.897 30.704 264.225 30.704C263.329 30.704 262.481 31.008 261.681 31.616C260.881 32.192 260.129 32.96 259.425 33.92C258.753 34.88 258.129 35.92 257.553 37.04C257.009 38.16 256.513 39.248 256.065 40.304C255.649 41.36 255.297 42.272 255.009 43.04C254.657 44 254.321 44.64 254.001 44.96C253.681 45.312 253.217 45.488 252.609 45.488C252.385 45.488 252.113 45.424 251.793 45.296C251.505 45.168 251.249 44.848 251.025 44.336C250.833 43.824 250.737 43.008 250.737 41.888C250.737 39.936 251.009 37.792 251.553 35.456C252.097 33.12 252.817 30.752 253.713 28.352C254.641 25.92 255.649 23.6 256.737 21.392C257.825 19.184 258.929 17.2 260.049 15.44C261.169 13.68 262.209 12.288 263.169 11.264C264.161 10.24 264.977 9.728 265.617 9.728C266.161 9.728 266.609 10.064 266.961 10.736C267.345 11.376 267.537 12.208 267.537 13.232C267.537 14.32 267.297 15.536 266.817 16.88C266.337 18.192 265.649 19.536 264.753 20.912C263.889 22.256 262.849 23.536 261.633 24.752C260.417 25.968 259.073 27.008 257.601 27.872C256.705 29.952 256.017 32.016 255.537 34.064C255.057 36.08 254.753 37.872 254.625 39.44C255.201 38.128 255.857 36.784 256.593 35.408C257.329 34.032 258.145 32.752 259.041 31.568C259.937 30.352 260.897 29.376 261.921 28.64C262.977 27.904 264.097 27.536 265.281 27.536C266.561 27.536 267.681 27.984 268.641 28.88C269.601 29.776 270.081 30.896 270.081 32.24C270.081 33.2 269.825 34.032 269.313 34.736C268.801 35.44 268.161 36.032 267.393 36.512C266.657 36.96 265.905 37.296 265.137 37.52C264.369 37.744 263.713 37.872 263.169 37.904C263.265 38.32 263.393 38.848 263.553 39.488C263.745 40.128 263.985 40.752 264.273 41.36C264.561 41.968 264.929 42.48 265.377 42.896C265.825 43.312 266.353 43.52 266.961 43.52C267.761 43.52 268.577 43.152 269.409 42.416C270.273 41.68 271.105 40.704 271.905 39.488C272.737 38.272 273.473 36.928 274.113 35.456L274.785 36.272C274.241 37.872 273.489 39.408 272.529 40.88C271.601 42.352 270.561 43.536 269.409 44.432C268.257 45.36 267.073 45.824 265.857 45.824ZM258.993 24.608C259.857 23.84 260.769 22.896 261.729 21.776C262.689 20.624 263.505 19.408 264.177 18.128C264.881 16.816 265.249 15.568 265.281 14.384C265.281 14.352 265.281 14.336 265.281 14.336C265.281 14.304 265.281 14.272 265.281 14.24C264.961 14.368 264.449 14.928 263.745 15.92C263.073 16.88 262.321 18.112 261.489 19.616C260.657 21.12 259.825 22.784 258.993 24.608ZM276.653 45.44C275.245 45.44 274.189 45.024 273.485 44.192C272.78 43.36 272.428 42.352 272.428 41.168C272.428 40.432 272.556 39.504 272.812 38.384C273.069 37.264 273.421 36.096 273.869 34.88C274.349 33.632 274.893 32.464 275.501 31.376C276.109 30.288 276.765 29.408 277.469 28.736C278.173 28.032 278.877 27.68 279.581 27.68C279.965 27.68 280.301 27.808 280.589 28.064C280.877 28.288 281.021 28.624 281.021 29.072C281.021 29.488 280.765 30.112 280.253 30.944C279.773 31.776 279.197 32.736 278.525 33.824C277.885 34.912 277.309 36.048 276.797 37.232C276.317 38.384 276.077 39.488 276.077 40.544C276.077 41.568 276.253 42.256 276.605 42.608C276.989 42.928 277.533 43.088 278.237 43.088C279.325 43.088 280.509 42.544 281.789 41.456C283.069 40.368 284.397 38.464 285.773 35.744L286.493 36.512C285.373 39.328 283.949 41.52 282.221 43.088C280.493 44.656 278.637 45.44 276.653 45.44ZM282.317 23.792C281.709 23.792 281.149 23.648 280.637 23.36C280.157 23.04 279.917 22.56 279.917 21.92C279.917 21.152 280.333 20.496 281.165 19.952C281.997 19.408 282.861 19.136 283.757 19.136C284.333 19.136 284.813 19.264 285.197 19.52C285.613 19.776 285.821 20.24 285.821 20.912C285.821 21.584 285.453 22.24 284.717 22.88C283.981 23.488 283.181 23.792 282.317 23.792ZM299.747 45.824C298.755 45.824 297.891 45.504 297.155 44.864C296.419 44.224 295.827 43.424 295.379 42.464C294.931 41.504 294.595 40.528 294.371 39.536C294.147 38.512 294.035 37.632 294.035 36.896C294.483 36.8 295.043 36.656 295.715 36.464C296.387 36.272 297.075 36.016 297.779 35.696C298.483 35.344 299.059 34.928 299.507 34.448C299.987 33.936 300.227 33.328 300.227 32.624C300.227 32.048 300.035 31.584 299.651 31.232C299.299 30.88 298.787 30.704 298.115 30.704C297.219 30.704 296.371 31.008 295.571 31.616C294.771 32.192 294.019 32.96 293.315 33.92C292.643 34.88 292.019 35.92 291.443 37.04C290.899 38.16 290.403 39.248 289.955 40.304C289.539 41.36 289.187 42.272 288.899 43.04C288.547 44 288.211 44.64 287.891 44.96C287.571 45.312 287.107 45.488 286.499 45.488C286.275 45.488 286.003 45.424 285.683 45.296C285.395 45.168 285.139 44.848 284.915 44.336C284.723 43.824 284.627 43.008 284.627 41.888C284.627 39.936 284.899 37.792 285.443 35.456C285.987 33.12 286.707 30.752 287.603 28.352C288.531 25.92 289.539 23.6 290.627 21.392C291.715 19.184 292.819 17.2 293.939 15.44C295.059 13.68 296.099 12.288 297.059 11.264C298.051 10.24 298.867 9.728 299.507 9.728C300.051 9.728 300.499 10.064 300.851 10.736C301.235 11.376 301.427 12.208 301.427 13.232C301.427 14.32 301.187 15.536 300.707 16.88C300.227 18.192 299.539 19.536 298.643 20.912C297.779 22.256 296.739 23.536 295.523 24.752C294.307 25.968 292.963 27.008 291.491 27.872C290.595 29.952 289.907 32.016 289.427 34.064C288.947 36.08 288.643 37.872 288.515 39.44C289.091 38.128 289.747 36.784 290.483 35.408C291.219 34.032 292.035 32.752 292.931 31.568C293.827 30.352 294.787 29.376 295.811 28.64C296.867 27.904 297.987 27.536 299.171 27.536C300.451 27.536 301.571 27.984 302.531 28.88C303.491 29.776 303.971 30.896 303.971 32.24C303.971 33.2 303.715 34.032 303.203 34.736C302.691 35.44 302.051 36.032 301.283 36.512C300.547 36.96 299.795 37.296 299.027 37.52C298.259 37.744 297.603 37.872 297.059 37.904C297.155 38.32 297.283 38.848 297.443 39.488C297.635 40.128 297.875 40.752 298.163 41.36C298.451 41.968 298.819 42.48 299.267 42.896C299.715 43.312 300.243 43.52 300.851 43.52C301.651 43.52 302.467 43.152 303.299 42.416C304.163 41.68 304.995 40.704 305.795 39.488C306.627 38.272 307.363 36.928 308.003 35.456L308.675 36.272C308.131 37.872 307.379 39.408 306.419 40.88C305.491 42.352 304.451 43.536 303.299 44.432C302.147 45.36 300.963 45.824 299.747 45.824ZM292.883 24.608C293.747 23.84 294.659 22.896 295.619 21.776C296.579 20.624 297.395 19.408 298.067 18.128C298.771 16.816 299.139 15.568 299.171 14.384C299.171 14.352 299.171 14.336 299.171 14.336C299.171 14.304 299.171 14.272 299.171 14.24C298.851 14.368 298.339 14.928 297.635 15.92C296.963 16.88 296.211 18.112 295.379 19.616C294.547 21.12 293.715 22.784 292.883 24.608ZM310.543 45.44C309.135 45.44 308.079 45.024 307.375 44.192C306.671 43.36 306.319 42.352 306.319 41.168C306.319 40.432 306.447 39.504 306.703 38.384C306.959 37.264 307.311 36.096 307.759 34.88C308.239 33.632 308.783 32.464 309.391 31.376C309.999 30.288 310.655 29.408 311.359 28.736C312.063 28.032 312.767 27.68 313.471 27.68C313.855 27.68 314.191 27.808 314.479 28.064C314.767 28.288 314.911 28.624 314.911 29.072C314.911 29.488 314.655 30.112 314.143 30.944C313.663 31.776 313.087 32.736 312.415 33.824C311.775 34.912 311.199 36.048 310.687 37.232C310.207 38.384 309.967 39.488 309.967 40.544C309.967 41.568 310.143 42.256 310.495 42.608C310.879 42.928 311.423 43.088 312.127 43.088C313.215 43.088 314.399 42.544 315.679 41.456C316.959 40.368 318.287 38.464 319.663 35.744L320.383 36.512C319.263 39.328 317.839 41.52 316.111 43.088C314.383 44.656 312.527 45.44 310.543 45.44ZM316.207 23.792C315.599 23.792 315.039 23.648 314.527 23.36C314.047 23.04 313.807 22.56 313.807 21.92C313.807 21.152 314.223 20.496 315.055 19.952C315.887 19.408 316.751 19.136 317.647 19.136C318.223 19.136 318.703 19.264 319.087 19.52C319.503 19.776 319.711 20.24 319.711 20.912C319.711 21.584 319.343 22.24 318.607 22.88C317.871 23.488 317.071 23.792 316.207 23.792ZM355.995 45.488C354.747 45.488 353.819 45.12 353.211 44.384C352.603 43.648 352.299 42.768 352.299 41.744C352.299 41.008 352.411 40.272 352.635 39.536C352.859 38.8 353.083 38.08 353.307 37.376C353.531 36.64 353.643 35.984 353.643 35.408C353.643 34.864 353.531 34.496 353.307 34.304C353.115 34.08 352.859 33.968 352.539 33.968C351.803 33.968 350.939 34.528 349.947 35.648C348.987 36.768 347.787 38.4 346.347 40.544C345.835 41.312 345.355 42.128 344.907 42.992C344.459 43.824 344.059 44.528 343.707 45.104C343.419 45.104 343.035 45.056 342.555 44.96C342.107 44.864 341.707 44.72 341.355 44.528C341.003 44.368 340.827 44.144 340.827 43.856C340.827 43.568 340.987 43.008 341.307 42.176C341.627 41.344 341.995 40.384 342.411 39.296C342.827 38.176 343.195 37.088 343.515 36.032C343.835 34.944 343.995 34.032 343.995 33.296C343.995 32.848 343.915 32.496 343.755 32.24C343.595 31.984 343.339 31.856 342.987 31.856C342.315 31.856 341.499 32.256 340.539 33.056C339.611 33.856 338.619 34.912 337.563 36.224C336.539 37.504 335.563 38.944 334.635 40.544C333.739 42.112 333.003 43.696 332.427 45.296C332.075 45.296 331.643 45.216 331.131 45.056C330.619 44.928 330.171 44.752 329.787 44.528C329.403 44.336 329.211 44.16 329.211 44C329.211 43.968 329.323 43.52 329.547 42.656C329.771 41.76 330.043 40.656 330.363 39.344C330.683 38.032 331.019 36.688 331.371 35.312C331.723 33.936 332.027 32.736 332.283 31.712C332.379 31.36 332.731 31.056 333.339 30.8C333.947 30.512 334.475 30.368 334.923 30.368C335.371 30.368 335.755 30.512 336.075 30.8C336.395 31.088 336.555 31.472 336.555 31.952C336.555 32.272 336.491 32.736 336.363 33.344C336.235 33.952 336.075 34.64 335.883 35.408C336.555 34.512 337.259 33.632 337.995 32.768C338.763 31.872 339.547 31.072 340.347 30.368C341.179 29.664 341.995 29.104 342.795 28.688C343.627 28.272 344.443 28.064 345.243 28.064C346.427 28.064 347.227 28.496 347.643 29.36C348.059 30.192 348.267 31.104 348.267 32.096C348.267 32.512 348.235 32.928 348.171 33.344C348.107 33.728 348.011 34.128 347.883 34.544C347.787 34.928 347.643 35.392 347.451 35.936C348.059 35.04 348.715 34.224 349.419 33.488C350.155 32.72 350.939 32.112 351.771 31.664C352.603 31.216 353.483 30.992 354.411 30.992C355.659 30.992 356.523 31.376 357.003 32.144C357.483 32.88 357.723 33.696 357.723 34.592C357.723 35.424 357.579 36.304 357.291 37.232C357.035 38.128 356.763 38.992 356.475 39.824C356.219 40.624 356.091 41.312 356.091 41.888C356.091 42.208 356.171 42.512 356.331 42.8C356.491 43.056 356.811 43.184 357.291 43.184C358.155 43.184 358.987 42.784 359.787 41.984C360.587 41.184 361.323 40.208 361.995 39.056C362.699 37.872 363.291 36.752 363.771 35.696L364.587 36.704C364.075 38.016 363.403 39.36 362.571 40.736C361.771 42.08 360.827 43.2 359.739 44.096C358.651 45.024 357.403 45.488 355.995 45.488ZM366.226 45.44C365.138 45.44 364.242 44.944 363.538 43.952C362.866 42.928 362.53 41.76 362.53 40.448C362.53 39.552 362.674 38.496 362.962 37.28C363.25 36.064 363.618 34.88 364.066 33.728C364.546 32.576 365.026 31.616 365.506 30.848C366.018 30.08 366.482 29.696 366.898 29.696C367.122 29.696 367.458 29.824 367.906 30.08C368.386 30.304 368.802 30.592 369.154 30.944C368.802 31.456 368.37 32.24 367.858 33.296C367.378 34.352 366.946 35.488 366.562 36.704C366.178 37.92 365.986 39.024 365.986 40.016C365.986 40.144 366.002 40.448 366.034 40.928C366.098 41.408 366.226 41.856 366.418 42.272C366.61 42.688 366.946 42.896 367.426 42.896C367.97 42.896 368.546 42.608 369.154 42.032C369.794 41.424 370.434 40.656 371.074 39.728C371.746 38.768 372.386 37.744 372.994 36.656C373.634 35.568 374.194 34.512 374.674 33.488C375.186 32.464 375.602 31.6 375.922 30.896C376.21 30.928 376.578 31.008 377.026 31.136C377.506 31.264 377.922 31.44 378.274 31.664C378.626 31.856 378.802 32.144 378.802 32.528C378.802 32.624 378.642 33.024 378.322 33.728C378.034 34.4 377.682 35.216 377.266 36.176C376.882 37.136 376.53 38.128 376.21 39.152C375.922 40.144 375.778 41.024 375.778 41.792C375.778 42.24 375.858 42.64 376.018 42.992C376.21 43.312 376.562 43.472 377.074 43.472C377.746 43.472 378.546 43.168 379.474 42.56C380.402 41.952 381.362 41.072 382.354 39.92C383.346 38.768 384.226 37.392 384.994 35.792L385.714 36.368C385.01 38.096 384.098 39.648 382.978 41.024C381.858 42.4 380.658 43.472 379.378 44.24C378.098 45.04 376.85 45.44 375.634 45.44C374.706 45.44 374.002 45.216 373.522 44.768C373.074 44.352 372.77 43.808 372.61 43.136C372.45 42.432 372.354 41.728 372.322 41.024C372.322 40.864 372.322 40.704 372.322 40.544C372.322 40.352 372.322 40.192 372.322 40.064C371.778 40.928 371.186 41.776 370.546 42.608C369.906 43.408 369.218 44.08 368.482 44.624C367.778 45.168 367.026 45.44 366.226 45.44ZM377.65 25.904C377.138 25.904 376.674 25.776 376.258 25.52C375.842 25.232 375.634 24.816 375.634 24.272C375.634 23.632 375.986 23.088 376.69 22.64C377.426 22.192 378.146 21.968 378.85 21.968C379.33 21.968 379.746 22.08 380.098 22.304C380.45 22.528 380.626 22.944 380.626 23.552C380.626 24.096 380.306 24.624 379.666 25.136C379.058 25.648 378.386 25.904 377.65 25.904ZM370.738 24.944C370.226 24.944 369.746 24.816 369.298 24.56C368.882 24.304 368.674 23.888 368.674 23.312C368.674 22.704 369.026 22.176 369.73 21.728C370.466 21.248 371.186 21.008 371.89 21.008C372.402 21.008 372.818 21.12 373.138 21.344C373.458 21.568 373.618 21.968 373.618 22.544C373.618 23.088 373.314 23.632 372.706 24.176C372.13 24.688 371.474 24.944 370.738 24.944ZM392.646 45.248C391.462 45.248 390.502 44.928 389.766 44.288C389.03 43.68 388.662 42.848 388.662 41.792C388.662 40.896 388.886 39.936 389.334 38.912C389.782 37.888 390.23 36.88 390.678 35.888C391.158 34.896 391.398 34.016 391.398 33.248C391.398 32.512 391.158 31.904 390.678 31.424C390.198 30.912 389.638 30.496 388.998 30.176C388.294 31.936 387.494 33.648 386.598 35.312C385.734 36.944 385.03 38.224 384.486 39.152L383.766 37.76C384.214 36.928 384.806 35.744 385.542 34.208C386.278 32.672 386.982 30.96 387.654 29.072C387.334 28.752 387.174 28.32 387.174 27.776C387.174 26.944 387.43 26.16 387.942 25.424C388.454 24.688 388.95 24.32 389.43 24.32C389.814 24.32 390.086 24.544 390.246 24.992C390.438 25.408 390.534 25.696 390.534 25.856C390.534 26.016 390.454 26.304 390.294 26.72C390.166 27.136 390.07 27.44 390.006 27.632C390.038 27.984 390.31 28.336 390.822 28.688C391.366 29.008 391.974 29.392 392.646 29.84C393.318 30.288 393.91 30.848 394.422 31.52C394.934 32.192 395.19 33.04 395.19 34.064C395.19 34.992 394.982 35.936 394.566 36.896C394.15 37.856 393.734 38.752 393.318 39.584C392.902 40.416 392.694 41.136 392.694 41.744C392.694 42.192 392.806 42.496 393.03 42.656C393.286 42.784 393.574 42.848 393.894 42.848C394.662 42.848 395.462 42.624 396.294 42.176C397.126 41.696 397.942 41.088 398.742 40.352C399.542 39.616 400.246 38.848 400.854 38.048C401.462 37.216 401.926 36.464 402.246 35.792L403.398 36.656C402.79 38.032 401.91 39.392 400.758 40.736C399.606 42.048 398.326 43.136 396.918 44C395.51 44.832 394.086 45.248 392.646 45.248ZM406.819 46.448C405.219 46.448 403.923 46.112 402.931 45.44C401.971 44.8 401.283 43.984 400.867 42.992C400.451 41.968 400.243 40.928 400.243 39.872C400.243 38.944 400.371 38.224 400.627 37.712C400.883 37.2 401.203 36.832 401.587 36.608C401.971 36.352 402.323 36.16 402.643 36.032C402.995 35.904 403.251 35.76 403.411 35.6C404.211 34.768 405.027 33.808 405.859 32.72C406.723 31.6 407.459 30.368 408.067 29.024V28.544C408.067 27.264 408.275 26.368 408.691 25.856C409.139 25.312 409.651 25.04 410.227 25.04C410.611 25.04 410.883 25.136 411.043 25.328C411.235 25.52 411.347 25.744 411.379 26C411.379 26.192 411.331 26.416 411.235 26.672C411.171 26.928 411.139 27.28 411.139 27.728C411.139 28.688 411.363 29.792 411.811 31.04C412.291 32.256 412.755 33.552 413.203 34.928C413.683 36.304 413.923 37.712 413.923 39.152C413.923 39.536 413.907 39.888 413.875 40.208C413.843 40.528 413.795 40.832 413.731 41.12C414.723 40.864 415.699 40.32 416.659 39.488C417.619 38.624 418.531 37.36 419.395 35.696L419.971 36.128C419.363 37.952 418.483 39.424 417.331 40.544C416.179 41.632 414.835 42.304 413.299 42.56C412.787 43.872 411.939 44.848 410.755 45.488C409.603 46.128 408.291 46.448 406.819 46.448ZM406.483 44.336C407.123 44.336 407.715 44.176 408.259 43.856C408.803 43.536 409.235 43.072 409.555 42.464C408.243 42.176 407.059 41.664 406.003 40.928C404.947 40.192 404.131 39.44 403.555 38.672C403.107 38.768 402.883 39.2 402.883 39.968C402.883 41.024 403.187 42.016 403.795 42.944C404.403 43.872 405.299 44.336 406.483 44.336ZM409.939 41.024C410.003 40.8 410.035 40.544 410.035 40.256C410.067 39.936 410.083 39.696 410.083 39.536C410.051 38.096 409.859 36.672 409.507 35.264C409.155 33.856 408.803 32.416 408.451 30.944C407.875 31.936 407.203 33.008 406.435 34.16C405.667 35.312 404.947 36.24 404.275 36.944C404.787 37.808 405.539 38.624 406.531 39.392C407.523 40.16 408.659 40.704 409.939 41.024ZM403.171 56.624C402.211 56.624 401.443 56.4 400.867 55.952C400.291 55.536 400.003 55.104 400.003 54.656C400.003 54.368 400.131 54.032 400.387 53.648C400.643 53.296 401.027 52.944 401.539 52.592C401.795 53.392 402.083 53.952 402.403 54.272C402.755 54.592 403.107 54.752 403.459 54.752C404.003 54.752 404.563 54.512 405.139 54.032C405.747 53.584 406.259 53.04 406.675 52.4C407.123 51.792 407.347 51.248 407.347 50.768C407.347 50.512 407.267 50.32 407.107 50.192C406.979 50.064 406.803 50 406.579 50C406.195 50 405.763 50.144 405.283 50.432C404.803 50.72 404.339 51.008 403.891 51.296C403.443 51.616 403.075 51.776 402.787 51.776C402.499 51.776 402.259 51.632 402.067 51.344C401.875 51.056 401.779 50.8 401.779 50.576C401.779 50.512 401.923 50.272 402.211 49.856C402.499 49.44 402.867 48.928 403.315 48.32C403.763 47.744 404.211 47.184 404.659 46.64C405.107 46.096 405.491 45.696 405.811 45.44H406.579L404.323 49.04C404.579 48.944 404.947 48.816 405.427 48.656C405.907 48.528 406.403 48.464 406.915 48.464C407.651 48.464 408.259 48.656 408.739 49.04C409.251 49.456 409.507 50.064 409.507 50.864C409.507 51.728 409.203 52.592 408.595 53.456C408.019 54.352 407.251 55.104 406.291 55.712C405.331 56.32 404.291 56.624 403.171 56.624ZM421.871 45.44C420.463 45.44 419.407 45.024 418.703 44.192C417.999 43.36 417.647 42.352 417.647 41.168C417.647 40.432 417.775 39.504 418.031 38.384C418.287 37.264 418.639 36.096 419.087 34.88C419.567 33.632 420.111 32.464 420.719 31.376C421.327 30.288 421.983 29.408 422.687 28.736C423.391 28.032 424.095 27.68 424.799 27.68C425.183 27.68 425.519 27.808 425.807 28.064C426.095 28.288 426.239 28.624 426.239 29.072C426.239 29.488 425.983 30.112 425.471 30.944C424.991 31.776 424.415 32.736 423.743 33.824C423.103 34.912 422.527 36.048 422.015 37.232C421.535 38.384 421.295 39.488 421.295 40.544C421.295 41.568 421.471 42.256 421.823 42.608C422.207 42.928 422.751 43.088 423.455 43.088C424.543 43.088 425.727 42.544 427.007 41.456C428.287 40.368 429.615 38.464 430.991 35.744L431.711 36.512C430.591 39.328 429.167 41.52 427.439 43.088C425.711 44.656 423.855 45.44 421.871 45.44ZM427.535 23.792C426.927 23.792 426.367 23.648 425.855 23.36C425.375 23.04 425.135 22.56 425.135 21.92C425.135 21.152 425.551 20.496 426.383 19.952C427.215 19.408 428.079 19.136 428.975 19.136C429.551 19.136 430.031 19.264 430.415 19.52C430.831 19.776 431.039 20.24 431.039 20.912C431.039 21.584 430.671 22.24 429.935 22.88C429.199 23.488 428.399 23.792 427.535 23.792ZM434.118 46.208C432.71 46.208 431.574 45.792 430.71 44.96C429.846 44.128 429.414 42.864 429.414 41.168C429.414 39.856 429.654 38.224 430.134 36.272C430.646 34.32 431.286 32.304 432.054 30.224C431.83 30.16 431.558 30.112 431.238 30.08C430.95 30.016 430.662 29.92 430.374 29.792V28.304C430.886 28.368 431.302 28.416 431.622 28.448C431.974 28.48 432.326 28.512 432.678 28.544C433.35 26.848 434.07 25.216 434.838 23.648C435.638 22.048 436.422 20.624 437.19 19.376C437.99 18.128 438.742 17.152 439.446 16.448C440.15 15.712 440.774 15.344 441.318 15.344C441.638 15.344 441.942 15.472 442.23 15.728C442.518 15.952 442.662 16.288 442.662 16.736C442.662 17.376 442.326 18.288 441.654 19.472C441.014 20.656 440.214 22.048 439.254 23.648C438.294 25.216 437.366 26.896 436.47 28.688C436.726 28.688 436.982 28.688 437.238 28.688C437.494 28.688 437.734 28.688 437.958 28.688C439.366 28.688 440.63 28.672 441.75 28.64C442.902 28.576 444.07 28.48 445.254 28.352V29.936C443.494 30.096 441.878 30.224 440.406 30.32C438.934 30.416 437.526 30.48 436.182 30.512C436.086 30.512 435.99 30.512 435.894 30.512C435.798 30.512 435.702 30.512 435.606 30.512C434.934 32.08 434.342 33.696 433.83 35.36C433.35 36.992 433.11 38.592 433.11 40.16C433.11 41.472 433.318 42.4 433.734 42.944C434.15 43.488 434.806 43.76 435.702 43.76C437.302 43.76 438.934 43.04 440.598 41.6C442.294 40.128 443.766 38.144 445.014 35.648L445.686 36.128C444.854 38.016 443.814 39.728 442.566 41.264C441.35 42.8 440.022 44 438.582 44.864C437.142 45.76 435.654 46.208 434.118 46.208ZM3.84 103.44C2.432 103.44 1.376 103.024 0.672 102.192C-0.032 101.36 -0.384 100.352 -0.384 99.168C-0.384 98.432 -0.256 97.504 0 96.384C0.256 95.264 0.608 94.096 1.056 92.88C1.536 91.632 2.08 90.464 2.688 89.376C3.296 88.288 3.952 87.408 4.656 86.736C5.36 86.032 6.064 85.68 6.768 85.68C7.152 85.68 7.488 85.808 7.776 86.064C8.064 86.288 8.208 86.624 8.208 87.072C8.208 87.488 7.952 88.112 7.44 88.944C6.96 89.776 6.384 90.736 5.712 91.824C5.072 92.912 4.496 94.048 3.984 95.232C3.504 96.384 3.264 97.488 3.264 98.544C3.264 99.568 3.44 100.256 3.792 100.608C4.176 100.928 4.72 101.088 5.424 101.088C6.512 101.088 7.696 100.544 8.976 99.456C10.256 98.368 11.584 96.464 12.96 93.744L13.68 94.512C12.56 97.328 11.136 99.52 9.408 101.088C7.68 102.656 5.824 103.44 3.84 103.44ZM9.504 81.792C8.896 81.792 8.336 81.648 7.824 81.36C7.344 81.04 7.104 80.56 7.104 79.92C7.104 79.152 7.52 78.496 8.352 77.952C9.184 77.408 10.048 77.136 10.944 77.136C11.52 77.136 12 77.264 12.384 77.52C12.8 77.776 13.008 78.24 13.008 78.912C13.008 79.584 12.64 80.24 11.904 80.88C11.168 81.488 10.368 81.792 9.504 81.792ZM15.8468 103.44C14.3428 103.44 13.2868 102.944 12.6788 101.952C12.1028 100.928 11.8148 99.728 11.8148 98.352C11.8148 96.784 12.1028 94.944 12.6788 92.832C13.2548 90.72 14.0068 88.512 14.9348 86.208C15.8948 83.872 16.9348 81.6 18.0547 79.392C19.2068 77.152 20.3588 75.136 21.5108 73.344C22.6628 71.552 23.7188 70.128 24.6788 69.072C25.6708 67.984 26.4708 67.44 27.0788 67.44C27.4948 67.44 27.8468 67.664 28.1348 68.112C28.4228 68.528 28.6468 69.04 28.8068 69.648C28.9988 70.224 29.0948 70.768 29.0948 71.28C29.0948 72.144 28.8708 73.28 28.4228 74.688C28.0068 76.064 27.3988 77.584 26.5988 79.248C25.8308 80.912 24.9028 82.624 23.8148 84.384C22.7588 86.112 21.5748 87.76 20.2628 89.328C18.9828 90.896 17.6068 92.256 16.1348 93.408C16.0068 94.208 15.8788 95.008 15.7508 95.808C15.6548 96.576 15.6068 97.28 15.6068 97.92C15.6068 99.072 15.7988 99.92 16.1828 100.464C16.5668 100.976 17.0628 101.232 17.6708 101.232C18.4708 101.232 19.2868 100.864 20.1188 100.128C20.9828 99.36 21.7988 98.4 22.5668 97.248C23.3668 96.064 24.0548 94.848 24.6308 93.6L25.7828 94.224C24.4068 97.072 22.8708 99.328 21.1748 100.992C19.4788 102.624 17.7028 103.44 15.8468 103.44ZM16.9988 90.432C18.0868 89.248 19.1108 87.968 20.0708 86.592C21.0628 85.184 21.9588 83.76 22.7588 82.32C23.5908 80.88 24.3108 79.488 24.9188 78.144C25.5268 76.8 25.9908 75.6 26.3108 74.544C26.6628 73.456 26.8548 72.592 26.8868 71.952C26.8868 71.92 26.8868 71.904 26.8868 71.904C26.8868 71.872 26.8868 71.84 26.8868 71.808C26.6308 71.808 26.2148 72.176 25.6388 72.912C25.0948 73.616 24.4388 74.592 23.6708 75.84C22.9028 77.088 22.1028 78.512 21.2708 80.112C20.4708 81.712 19.6868 83.408 18.9188 85.2C18.1828 86.96 17.5428 88.704 16.9988 90.432ZM27.3244 103.44C25.9164 103.44 24.8604 103.024 24.1564 102.192C23.4524 101.36 23.1004 100.352 23.1004 99.168C23.1004 98.432 23.2284 97.504 23.4844 96.384C23.7404 95.264 24.0924 94.096 24.5404 92.88C25.0204 91.632 25.5644 90.464 26.1724 89.376C26.7804 88.288 27.4364 87.408 28.1404 86.736C28.8444 86.032 29.5484 85.68 30.2524 85.68C30.6364 85.68 30.9724 85.808 31.2604 86.064C31.5484 86.288 31.6924 86.624 31.6924 87.072C31.6924 87.488 31.4364 88.112 30.9244 88.944C30.4444 89.776 29.8684 90.736 29.1964 91.824C28.5564 92.912 27.9804 94.048 27.4684 95.232C26.9884 96.384 26.7484 97.488 26.7484 98.544C26.7484 99.568 26.9244 100.256 27.2764 100.608C27.6604 100.928 28.2044 101.088 28.9084 101.088C29.9964 101.088 31.1804 100.544 32.4604 99.456C33.7404 98.368 35.0684 96.464 36.4444 93.744L37.1644 94.512C36.0444 97.328 34.6204 99.52 32.8924 101.088C31.1644 102.656 29.3084 103.44 27.3244 103.44ZM32.9884 81.792C32.3804 81.792 31.8204 81.648 31.3084 81.36C30.8284 81.04 30.5884 80.56 30.5884 79.92C30.5884 79.152 31.0044 78.496 31.8364 77.952C32.6684 77.408 33.5324 77.136 34.4284 77.136C35.0044 77.136 35.4844 77.264 35.8684 77.52C36.2844 77.776 36.4924 78.24 36.4924 78.912C36.4924 79.584 36.1244 80.24 35.3884 80.88C34.6524 81.488 33.8524 81.792 32.9884 81.792ZM60.3071 103.488C59.0591 103.488 58.1311 103.12 57.5231 102.384C56.9151 101.648 56.6111 100.768 56.6111 99.744C56.6111 99.008 56.7231 98.272 56.9471 97.536C57.1711 96.8 57.3951 96.08 57.6191 95.376C57.8431 94.64 57.9551 93.984 57.9551 93.408C57.9551 92.864 57.8431 92.496 57.6191 92.304C57.4271 92.08 57.1711 91.968 56.8511 91.968C56.1151 91.968 55.2511 92.528 54.2591 93.648C53.2991 94.768 52.0991 96.4 50.6591 98.544C50.1471 99.312 49.6671 100.128 49.2191 100.992C48.7711 101.824 48.3711 102.528 48.0191 103.104C47.7311 103.104 47.3471 103.056 46.8671 102.96C46.4191 102.864 46.0191 102.72 45.6671 102.528C45.3151 102.368 45.1391 102.144 45.1391 101.856C45.1391 101.568 45.2991 101.008 45.6191 100.176C45.9391 99.344 46.3071 98.384 46.7231 97.296C47.1391 96.176 47.5071 95.088 47.8271 94.032C48.1471 92.944 48.3071 92.032 48.3071 91.296C48.3071 90.848 48.2271 90.496 48.0671 90.24C47.9071 89.984 47.6511 89.856 47.2991 89.856C46.6271 89.856 45.8111 90.256 44.8511 91.056C43.9231 91.856 42.9311 92.912 41.8751 94.224C40.8511 95.504 39.8751 96.944 38.9471 98.544C38.0511 100.112 37.3151 101.696 36.7391 103.296C36.3871 103.296 35.9551 103.216 35.4431 103.056C34.9311 102.928 34.4831 102.752 34.0991 102.528C33.7151 102.336 33.5231 102.16 33.5231 102C33.5231 101.968 33.6351 101.52 33.8591 100.656C34.0831 99.76 34.3551 98.656 34.6751 97.344C34.9951 96.032 35.3311 94.688 35.6831 93.312C36.0351 91.936 36.3391 90.736 36.5951 89.712C36.6911 89.36 37.0431 89.056 37.6511 88.8C38.2591 88.512 38.7871 88.368 39.2351 88.368C39.6831 88.368 40.0671 88.512 40.3871 88.8C40.7071 89.088 40.8671 89.472 40.8671 89.952C40.8671 90.272 40.8031 90.736 40.6751 91.344C40.5471 91.952 40.3871 92.64 40.1951 93.408C40.8671 92.512 41.5711 91.632 42.3071 90.768C43.0751 89.872 43.8591 89.072 44.6591 88.368C45.4911 87.664 46.3071 87.104 47.1071 86.688C47.9391 86.272 48.7551 86.064 49.5551 86.064C50.7391 86.064 51.5391 86.496 51.9551 87.36C52.3711 88.192 52.5791 89.104 52.5791 90.096C52.5791 90.512 52.5471 90.928 52.4831 91.344C52.4191 91.728 52.3231 92.128 52.1951 92.544C52.0991 92.928 51.9551 93.392 51.7631 93.936C52.3711 93.04 53.0271 92.224 53.7311 91.488C54.4671 90.72 55.2511 90.112 56.0831 89.664C56.9151 89.216 57.7951 88.992 58.7231 88.992C59.9711 88.992 60.8351 89.376 61.3151 90.144C61.7951 90.88 62.0351 91.696 62.0351 92.592C62.0351 93.424 61.8911 94.304 61.6031 95.232C61.3471 96.128 61.0751 96.992 60.7871 97.824C60.5311 98.624 60.4031 99.312 60.4031 99.888C60.4031 100.208 60.4831 100.512 60.6431 100.8C60.8031 101.056 61.1231 101.184 61.6031 101.184C62.4671 101.184 63.2991 100.784 64.0991 99.984C64.8991 99.184 65.6351 98.208 66.3071 97.056C67.0111 95.872 67.6031 94.752 68.0831 93.696L68.8991 94.704C68.3871 96.016 67.7151 97.36 66.8831 98.736C66.0831 100.08 65.1391 101.2 64.0511 102.096C62.9631 103.024 61.7151 103.488 60.3071 103.488ZM70.2026 103.44C69.5946 103.44 68.9706 103.28 68.3306 102.96C67.7226 102.672 67.2106 102.208 66.7946 101.568C66.3466 100.928 66.1226 100.112 66.1226 99.12C66.1226 98.064 66.3786 96.88 66.8906 95.568C67.4026 94.256 68.0906 92.944 68.9546 91.632C69.8506 90.32 70.8746 89.12 72.0266 88.032C73.2106 86.944 74.4586 86.064 75.7706 85.392C77.0826 84.72 78.4106 84.384 79.7546 84.384C80.4906 84.384 81.0666 84.512 81.4826 84.768C81.8986 84.992 82.1066 85.376 82.1066 85.92C82.1066 86.08 82.0746 86.272 82.0106 86.496C81.9466 86.688 81.7866 86.864 81.5306 87.024C81.4026 86.832 81.1786 86.704 80.8586 86.64C80.5386 86.544 80.2026 86.496 79.8506 86.496C78.7946 86.496 77.7866 86.8 76.8266 87.408C75.8666 87.984 74.9866 88.736 74.1866 89.664C73.3866 90.592 72.6826 91.6 72.0746 92.688C71.4986 93.776 71.0506 94.832 70.7306 95.856C70.4106 96.848 70.2506 97.712 70.2506 98.448C70.2506 99.056 70.3786 99.552 70.6346 99.936C70.8906 100.288 71.2746 100.464 71.7866 100.464C72.6506 100.464 73.6746 99.968 74.8586 98.976C76.0746 97.952 77.3066 96.496 78.5546 94.608C79.8346 92.688 80.9866 90.4 82.0106 87.744C82.7146 85.92 83.4506 84.064 84.2186 82.176C84.9866 80.256 85.7546 78.416 86.5226 76.656C87.2906 74.896 88.0426 73.328 88.7786 71.952C89.5466 70.576 90.2666 69.488 90.9386 68.688C91.6426 67.856 92.2826 67.44 92.8586 67.44C93.2106 67.44 93.5146 67.584 93.7706 67.872C94.0586 68.128 94.2026 68.464 94.2026 68.88C94.2026 69.424 93.9306 70.304 93.3866 71.52C92.8746 72.704 92.2026 74.128 91.3706 75.792C90.5706 77.456 89.6906 79.264 88.7306 81.216C87.8026 83.136 86.9226 85.12 86.0906 87.168C85.2906 89.184 84.6186 91.184 84.0746 93.168C83.5626 95.12 83.3066 96.96 83.3066 98.688C83.3066 99.456 83.3706 99.984 83.4986 100.272C83.6586 100.528 83.9146 100.656 84.2666 100.656C84.9706 100.656 85.7546 100.384 86.6186 99.84C87.4826 99.296 88.3626 98.496 89.2586 97.44C90.1546 96.352 90.9706 95.056 91.7066 93.552L92.6186 94.32C91.9146 96.08 91.0186 97.632 89.9306 98.976C88.8426 100.32 87.6746 101.36 86.4266 102.096C85.1786 102.864 83.9466 103.248 82.7306 103.248C81.4186 103.248 80.5066 102.832 79.9946 102C79.4826 101.168 79.2266 100.192 79.2266 99.072C79.2266 98.56 79.2586 98.048 79.3226 97.536C79.4186 96.992 79.5146 96.464 79.6106 95.952C78.6186 97.392 77.5626 98.688 76.4426 99.84C75.3546 100.96 74.2826 101.84 73.2266 102.48C72.1706 103.12 71.1626 103.44 70.2026 103.44ZM94.3088 103.44C92.9008 103.44 91.8448 103.024 91.1408 102.192C90.4367 101.36 90.0847 100.352 90.0847 99.168C90.0847 98.432 90.2127 97.504 90.4688 96.384C90.7248 95.264 91.0768 94.096 91.5248 92.88C92.0048 91.632 92.5488 90.464 93.1568 89.376C93.7648 88.288 94.4208 87.408 95.1248 86.736C95.8288 86.032 96.5328 85.68 97.2368 85.68C97.6208 85.68 97.9568 85.808 98.2448 86.064C98.5328 86.288 98.6768 86.624 98.6768 87.072C98.6768 87.488 98.4208 88.112 97.9088 88.944C97.4288 89.776 96.8528 90.736 96.1808 91.824C95.5408 92.912 94.9648 94.048 94.4528 95.232C93.9728 96.384 93.7328 97.488 93.7328 98.544C93.7328 99.568 93.9088 100.256 94.2608 100.608C94.6448 100.928 95.1888 101.088 95.8928 101.088C96.9808 101.088 98.1648 100.544 99.4448 99.456C100.725 98.368 102.053 96.464 103.429 93.744L104.149 94.512C103.029 97.328 101.605 99.52 99.8768 101.088C98.1488 102.656 96.2928 103.44 94.3088 103.44ZM99.9728 81.792C99.3648 81.792 98.8048 81.648 98.2928 81.36C97.8128 81.04 97.5728 80.56 97.5728 79.92C97.5728 79.152 97.9888 78.496 98.8208 77.952C99.6528 77.408 100.517 77.136 101.413 77.136C101.989 77.136 102.469 77.264 102.853 77.52C103.269 77.776 103.477 78.24 103.477 78.912C103.477 79.584 103.109 80.24 102.373 80.88C101.637 81.488 100.837 81.792 99.9728 81.792ZM111.068 103.248C109.884 103.248 108.924 102.928 108.188 102.288C107.452 101.68 107.084 100.848 107.084 99.792C107.084 98.896 107.308 97.936 107.756 96.912C108.204 95.888 108.652 94.88 109.1 93.888C109.58 92.896 109.82 92.016 109.82 91.248C109.82 90.512 109.58 89.904 109.1 89.424C108.62 88.912 108.06 88.496 107.42 88.176C106.716 89.936 105.916 91.648 105.02 93.312C104.156 94.944 103.452 96.224 102.908 97.152L102.188 95.76C102.636 94.928 103.228 93.744 103.964 92.208C104.7 90.672 105.404 88.96 106.076 87.072C105.756 86.752 105.596 86.32 105.596 85.776C105.596 84.944 105.852 84.16 106.364 83.424C106.876 82.688 107.372 82.32 107.852 82.32C108.236 82.32 108.508 82.544 108.668 82.992C108.86 83.408 108.956 83.696 108.956 83.856C108.956 84.016 108.876 84.304 108.716 84.72C108.588 85.136 108.492 85.44 108.428 85.632C108.46 85.984 108.732 86.336 109.243 86.688C109.788 87.008 110.396 87.392 111.068 87.84C111.74 88.288 112.332 88.848 112.844 89.52C113.356 90.192 113.612 91.04 113.612 92.064C113.612 92.992 113.404 93.936 112.988 94.896C112.572 95.856 112.156 96.752 111.74 97.584C111.324 98.416 111.116 99.136 111.116 99.744C111.116 100.192 111.228 100.496 111.452 100.656C111.708 100.784 111.996 100.848 112.316 100.848C113.084 100.848 113.884 100.624 114.716 100.176C115.548 99.696 116.364 99.088 117.164 98.352C117.964 97.616 118.668 96.848 119.276 96.048C119.884 95.216 120.348 94.464 120.668 93.792L121.82 94.656C121.212 96.032 120.332 97.392 119.18 98.736C118.028 100.048 116.748 101.136 115.34 102C113.932 102.832 112.508 103.248 111.068 103.248ZM123.081 102.48C122.313 102.48 121.769 102.288 121.449 101.904C121.129 101.488 120.969 101.072 120.969 100.656C120.969 100.304 121.129 99.936 121.449 99.552C121.769 99.136 122.169 98.8 122.649 98.544C123.129 98.256 123.577 98.112 123.993 98.112C124.345 98.112 124.697 98.224 125.049 98.448C125.401 98.64 125.577 99.024 125.577 99.6C125.577 99.856 125.481 100.224 125.289 100.704C125.097 101.152 124.809 101.568 124.425 101.952C124.073 102.304 123.625 102.48 123.081 102.48Z" fill="black"/>
<path d="M288.173 147.883C284.678 147.427 283.721 146.358 284.495 143.773C284.827 142.667 285.067 142.431 286.012 142.287C286.629 142.193 287.19 142.166 287.257 142.227C287.325 142.288 286.811 142.838 286.115 143.449C285.28 144.183 284.885 144.805 284.954 145.28C285.133 146.519 286.486 146.935 289.805 146.773C292.371 146.647 293.212 146.44 295.429 145.386C298.785 143.792 301.198 141.41 302.605 138.306C303.521 136.286 303.636 135.701 303.486 133.835C302.963 127.314 296.738 122.669 288.492 122.645C286.676 122.64 285.799 122.903 282.088 124.57C277.865 126.467 272.723 128.18 271.255 128.18C270.718 128.18 268.44 130.509 263.113 136.5C259.045 141.076 255.596 144.895 255.448 144.986C255.3 145.078 254.863 145.035 254.475 144.892C253.855 144.662 254.575 143.729 260.55 137.012L267.328 129.393L265.184 129.184C262.769 128.949 262.03 128.488 262.588 127.565C263.263 126.446 267.231 124.121 269.743 123.371C271.122 122.96 272.635 122.507 273.105 122.366C273.612 122.214 276.069 119.645 279.142 116.054C285.28 108.88 290.858 103.244 291.82 103.244C292.194 103.244 292.5 103.319 292.5 103.412C292.5 103.504 289.073 107.484 284.885 112.257C280.696 117.029 277.269 121.083 277.269 121.267C277.269 121.461 278.955 121.6 281.321 121.6H285.374L288.677 119.641C295.755 115.444 303.716 109.13 304.093 107.416C304.344 106.27 304.962 106.299 304.962 107.457C304.962 109.078 303.071 110.72 291.668 118.997C289.827 120.334 288.781 121.297 289.072 121.389C289.339 121.474 290.701 121.789 292.099 122.089C301.538 124.114 306.37 130.934 303.969 138.843C302.952 142.195 300.983 144.343 297.229 146.196C294.132 147.725 291.18 148.275 288.173 147.883ZM268.515 128.312C269.304 128.1 272.209 124.562 272.014 124.051C271.85 123.622 268.362 124.599 266.21 125.677C264.061 126.754 263.3 127.665 264.115 128.185C264.693 128.553 267.331 128.63 268.515 128.312ZM277.639 125.312C280.125 124.368 282.808 123.067 282.808 122.805C282.808 122.714 281.211 122.64 279.26 122.641L275.712 122.644L274.158 124.533C273.304 125.571 272.555 126.571 272.495 126.753C272.371 127.126 274.241 126.602 277.639 125.312ZM353.51 144.116C352.653 143.593 352.385 143.188 352.385 142.416C352.385 139.756 357.158 138.247 365.625 138.231L369.346 138.224V139.085C369.346 139.925 369.298 139.941 367.356 139.747C363.316 139.345 354.288 141.395 354.288 142.715C354.288 143.929 357.427 143.925 368.109 142.699C380.738 141.25 394.684 138.472 413.308 133.696C431.65 128.992 439.13 126.115 443.872 121.936C448.16 118.159 448.254 113.944 444.142 109.851C442.597 108.314 441.571 107.537 438.75 105.768C435.577 103.779 426.084 99.8586 423.627 99.523C421.171 99.1875 420.77 99.4975 418.807 103.253C416.754 107.182 415.9 107.49 416.885 103.945C417.358 102.242 417.385 101.727 417.033 101.163C416.515 100.332 416.936 99.4742 418.169 98.8489C418.788 98.535 419.366 97.3802 420.598 94.0001C422.895 87.694 422.924 87.5632 421.728 89.0342C421.19 89.6956 418.432 93.4361 415.599 97.3464C409.547 105.701 409.28 106.015 408.228 106.015C407.579 106.015 407.425 105.83 407.431 105.062C407.435 104.538 407.749 103.424 408.129 102.586C408.509 101.748 408.732 100.975 408.624 100.867C408.206 100.448 407.171 101.507 405.26 104.309C402.689 108.079 401.413 109.274 400.488 108.779C400.114 108.579 399.808 108.108 399.808 107.734C399.808 106.623 399.31 106.936 397.586 109.132C396.688 110.275 395.833 111.21 395.685 111.21C395.124 111.21 394.348 109.948 394.117 108.659L393.877 107.32L390.829 110.304C389.153 111.945 387.524 113.288 387.21 113.288C386.41 113.288 385.833 111.826 386.094 110.457C386.215 109.823 387.639 106.593 389.259 103.278C390.878 99.964 392.144 97.1926 392.072 97.1199C391.943 96.9911 389.172 100.452 380.929 111.037C375.793 117.631 375.585 117.798 374.219 116.431C373.561 115.774 373.528 115.789 371.707 117.612C370.39 118.93 369.488 119.529 368.561 119.703C366.622 120.067 366.103 119.479 366.339 117.188L366.528 115.353L365.601 116.03C365.09 116.402 363.427 117.814 361.904 119.167C358.236 122.426 354.554 124.948 354.111 124.505C353.386 123.78 357.769 112.613 360.021 109.448C360.818 108.329 360.744 107.835 359.855 108.333C359.557 108.5 355.846 112.745 351.608 117.767C343.711 127.125 342.026 128.701 341.005 127.679C340.157 126.831 340.499 125.272 342.466 121.025C343.51 118.77 344.309 116.869 344.242 116.801C344.175 116.734 343.604 117.277 342.973 118.007C337.287 124.6 332.22 129.622 328.125 132.725C325.806 134.483 322.412 136.146 321.144 136.146C319.228 136.147 318.187 133.971 318.553 130.726C318.77 128.796 318.605 128.957 316.375 132.856C315.395 134.57 314.704 135.661 314.84 135.28C317.166 128.786 321.601 121.003 326.091 115.539C328.303 112.847 329.572 111.612 332.135 109.662C333.53 108.599 333.353 108.84 331.221 110.902C328.63 113.41 326.781 115.712 327.36 115.712C327.521 115.712 328.816 114.526 330.239 113.076C334.474 108.762 338.658 105.883 342.305 104.776C344.727 104.04 345.623 104.151 346.803 105.332C347.681 106.211 347.867 106.695 347.954 108.331L348.058 110.283L349.562 108.133C350.748 106.438 351.164 106.066 351.531 106.371C351.91 106.685 351.686 107.285 350.334 109.59C343.046 122.004 342 123.974 342 125.288C342 126.222 343.12 125.718 345.003 123.938C347.933 121.167 356.885 110.301 356.885 109.515C356.885 109.367 355.955 109.489 354.818 109.785C352.97 110.267 352.728 110.434 352.522 111.373C352.294 112.41 352.288 112.413 351.986 111.598C351.798 111.088 351.815 110.613 352.033 110.351C352.226 110.118 353.965 109.32 355.898 108.577L359.412 107.227L363.774 102.046C371.475 92.8976 371.701 92.7815 367.233 100.27C365.539 103.111 364.208 105.492 364.277 105.561C364.346 105.63 370.709 103.403 378.416 100.613L392.43 95.541L395.513 91.8828C399.751 86.854 400.724 86.5925 397.904 91.2401C397.047 92.652 396.346 93.8936 396.346 93.9991C396.346 94.1047 398.099 93.5709 400.24 92.8129C402.382 92.055 408.728 89.8448 414.342 87.9015L424.549 84.3683L425.358 82.8963C426.216 81.3351 427.154 80.9433 427.154 82.1459C427.154 82.5428 427.273 82.8155 427.418 82.752C431.214 81.0962 432.71 80.6612 433.201 81.0697C433.493 81.3114 433.731 81.8316 433.731 82.2256C433.731 82.9152 433.713 82.9179 433.259 82.2968C432.805 81.6749 432.673 81.6927 429.636 82.7884C426.672 83.8577 426.419 84.0282 425.376 85.6542C424.766 86.605 423.535 89.4321 422.641 91.9366C420.223 98.704 420.317 98.1162 421.671 97.9864C422.694 97.8883 423.155 97.4382 425.685 94.0658C427.429 91.7424 428.509 89.9858 428.455 89.5634C428.335 88.6333 426.827 88.4219 426.221 89.2503C425.973 89.5906 425.769 89.6921 425.769 89.476C425.769 88.9195 427.173 88.0048 428.027 88.0048C428.423 88.0048 428.933 88.1919 429.162 88.4205C430.285 89.5441 429.135 91.8783 425.286 96.2921L423.345 98.5184L428.105 100.116C434.257 102.182 438.682 104.385 442.545 107.305C447.487 111.042 449.223 114.184 448.265 117.655C447.901 118.973 447.294 119.852 445.524 121.62C441.788 125.351 435.058 128.394 424.186 131.267C421.344 132.018 416.535 133.343 413.499 134.212C400.727 137.866 384.808 141.036 364.754 143.92C357.211 145.005 355.029 145.043 353.51 144.116ZM324.273 134.092C324.98 133.724 326.446 132.672 327.532 131.754C330.324 129.394 339.09 120.178 341.419 117.154C343.938 113.883 346.57 108.678 346.43 107.245C346.329 106.212 346.287 106.189 344.605 106.25C342.39 106.331 337.058 108.937 333.156 111.847C330.006 114.195 324.082 120.207 322.575 122.585C320.668 125.595 319.225 130.64 319.679 132.711C320.143 134.823 321.873 135.343 324.273 134.092ZM358.923 121.103C360.182 120.068 363.652 116.814 366.635 113.871C371.557 109.016 372.217 108.484 373.788 108.107C375.883 107.604 376.962 108.015 376.962 109.317C376.962 110.472 377.387 110.392 377.945 109.132C378.197 108.56 378.625 108.093 378.894 108.093C379.565 108.093 379.563 108.098 378 111.21C376.354 114.485 376.191 115.657 377.505 114.754C378.049 114.381 390.902 97.3351 390.753 97.1856C390.683 97.1158 385.565 98.9317 379.38 101.221C373.195 103.51 366.966 105.812 365.538 106.337L362.942 107.292L359.394 114.267C356.081 120.779 355.283 122.985 356.24 122.985C356.457 122.985 357.664 122.138 358.923 121.103ZM371.107 116.318C373.48 113.571 375.923 109.986 375.923 109.251C375.923 108.398 374.557 108.77 373.208 109.99C371.342 111.677 367.615 117.019 367.615 118.008C367.615 119.538 368.837 118.946 371.107 116.318ZM392.836 106.967C395.385 104.443 397.392 102.69 397.296 103.071C397.2 103.452 396.761 104.967 396.321 106.439C395.881 107.91 395.637 109.23 395.779 109.373C396.109 109.703 398.964 106.538 401.074 103.504C401.968 102.218 402.827 101.166 402.984 101.166C403.37 101.166 403.383 101.113 402.404 103.524C400.182 108.995 402.283 108.515 405.619 102.79C407.232 100.02 408.695 98.4897 409.222 99.0178C409.385 99.1807 409.614 100.12 409.73 101.106C409.847 102.091 410.079 102.898 410.245 102.898C410.411 102.898 413.004 99.5856 416.006 95.5378C421.258 88.456 423.246 85.5805 422.888 85.5805C422.094 85.5805 394.688 95.8674 394.365 96.2869C393.6 97.2799 387 110.491 387 111.03C387 112.303 388.508 111.253 392.836 106.967ZM402.923 98.0488C402.923 97.6024 403.098 97.3568 403.356 97.4427C403.594 97.522 403.788 97.7948 403.788 98.0488C403.788 98.3027 403.594 98.5755 403.356 98.6548C403.098 98.7407 402.923 98.4951 402.923 98.0488ZM400.212 97.8289C400.28 97.4736 400.49 97.2219 400.678 97.2695C401.181 97.3971 401.093 98.1396 400.553 98.3195C400.25 98.4207 400.131 98.2495 400.212 97.8289ZM362.929 105.459C363.462 104.926 364.981 102.205 364.746 102.205C364.683 102.205 363.892 103.062 362.988 104.11C361.971 105.288 361.541 106.015 361.859 106.015C362.142 106.015 362.624 105.765 362.929 105.459ZM307.731 130.593C307.731 129.671 308.718 128.18 309.328 128.18C309.974 128.18 309.938 129.571 309.269 130.528C308.595 131.491 307.731 131.527 307.731 130.593Z" fill="black"/>
</g>
<defs>
<clipPath id="clip0_101_2">
<rect width="450" height="150" fill="white"/>
</clipPath>
</defs>
</svg>
